<svg id="ea1df9ea-2094-47f9-9a6c-6dae50c86188" data-name="Layer 1" xmlns="http://www.w3.org/2000/svg" viewBox="0 0 32 32"><title>3-5-mm-icon</title><path d="M26.83,14.68H25.59V12.26h1.24a1.21,1.21,0,0,1,0,2.42Zm-2.61,0H21V12.26h3.23ZM16,0A16,16,0,0,0,8.4,30.08c-.21-3.93-.63-12.54-.61-14.54a5.62,5.62,0,0,1,.62-3A5.29,5.29,0,0,1,11.93,10a8.6,8.6,0,0,1,1.68-.07h3.52a.19.19,0,0,1,.18.19V11h2.16a.16.16,0,0,1,.16.15v5.09a.16.16,0,0,1-.16.16H17.31v.68a.18.18,0,0,1-.18.18H15.64a3.89,3.89,0,0,0-.47.09,2.27,2.27,0,0,0-1.57,1.48,6.32,6.32,0,0,0-.23,1.89l-.09,1.75-.12,2.35L13,27.38,12.9,29.7l-.09,1.7v.28h-.06A16.17,16.17,0,0,0,16,32,16,16,0,0,0,16,0Z" fill="#424c59" fill-rule="evenodd"/></svg>