<svg id="e1cbcd45-99d4-4bf3-9e98-bb8e59d0100c" data-name="Layer 1" xmlns="http://www.w3.org/2000/svg" xmlns:xlink="http://www.w3.org/1999/xlink" viewBox="0 0 32 32"><defs><mask id="b174b084-de25-4c3b-9547-073551f5df87" x="0" y="0" width="32" height="32" maskUnits="userSpaceOnUse"><g id="b825c904-7f51-4a2d-9271-7bbaa02aa812" data-name="b"><path id="e6342342-ddde-46d2-8d61-0093dafbafa5" data-name="a" d="M17.64,16.22l5-5L15.05,3.57v10L10.86,9.42,9.33,11l5.26,5.27L9.33,21.49,10.86,23l4.19-4.19v10l7.62-7.62ZM32,16A16,16,0,1,1,16,0,16,16,0,0,1,32,16ZM17.19,23.67l2.43-2.44L17.19,18.8v4.87ZM19.62,11.2l-2.43,2.44V8.77Z" fill="#fff" fill-rule="evenodd"/></g></mask></defs><title>bluetooth</title><path d="M17.64,16.22l5-5L15.05,3.57v10L10.86,9.42,9.33,11l5.26,5.27L9.33,21.49,10.86,23l4.19-4.19v10l7.62-7.62ZM32,16A16,16,0,1,1,16,0,16,16,0,0,1,32,16ZM17.19,23.67l2.43-2.44L17.19,18.8v4.87ZM19.62,11.2l-2.43,2.44V8.77Z" fill="#fff" fill-rule="evenodd"/><g mask="url(#b174b084-de25-4c3b-9547-073551f5df87)"><path d="M0,0H32V32H0Z" fill="#424c59" fill-rule="evenodd"/></g></svg>