<svg id="ba7e73b8-57c7-480a-b101-3a090e96a393" data-name="b6f804c3-f3b3-4b67-a137-47639ec9982c" xmlns="http://www.w3.org/2000/svg" viewBox="0 0 33.5 32.02"><title>lightning-icon</title><path d="M16.25,17.74c.16.07.36.15.42.19a5.67,5.67,0,0,1-.46,1.12c-.19.44-.27.6-.36.84a1.54,1.54,0,0,1-.12.28c0,.06,0,.16,0,.2h0A17,17,0,0,0,17,19c1.11-1.3,1.1-1.41,1.09-1.46h0c0-.12-.27-.24-.85-.48l-.37-.16a8.93,8.93,0,0,1,.47-1.15c.54-1.21.53-1.22.48-1.27h-.1c-.44.44-.87.9-1.27,1.38-1.08,1.27-1,1.38-1,1.43s.27.22.8.44m2.32-10.1a.06.06,0,0,1-.06.06h0a.06.06,0,0,1-.06-.06h0V6.51a.06.06,0,0,1,.06-.06.06.06,0,0,1,.06.06Zm-.5,0a.06.06,0,0,1-.06.06h0A.09.09,0,0,1,18,7.63h0V6.51a.09.09,0,0,1,.07-.06.06.06,0,0,1,.06.06Zm-.5,0a.06.06,0,0,1-.06.06h0a.06.06,0,0,1-.06-.06h0V6.51a.06.06,0,0,1,.06-.06.07.07,0,0,1,.07.06Zm-.51,0a.06.06,0,0,1-.06.06h0A.06.06,0,0,1,17,7.63h0V6.51A.06.06,0,0,1,17,6.45a.06.06,0,0,1,.06.06Zm-.5,0a.06.06,0,0,1-.06.06h0a.06.06,0,0,1-.06-.06h0V6.51a.06.06,0,0,1,.06-.06h0a.06.06,0,0,1,.06.06h0Zm-.5,0a.06.06,0,0,1-.06.06h0A.09.09,0,0,1,16,7.63h0V6.51A.09.09,0,0,1,16,6.45a.06.06,0,0,1,.06.06h0Zm-.51,0a.06.06,0,0,1-.06.06h0a.06.06,0,0,1-.06-.06h0V6.51a.06.06,0,0,1,.06-.06h0a0,0,0,0,1,.06,0s0,0,0,0h0Zm-.5,0a.06.06,0,0,1-.06.06h0A.06.06,0,0,1,15,7.63h0V6.51A.06.06,0,0,1,15,6.45h0a.06.06,0,0,1,.06.06h0Z" transform="translate(0 0.02)" fill="#424c59" fill-rule="evenodd"/><path d="M16.79,0a16,16,0,0,0-1.55,32V25.36H12.92V11h.81V6.23a1.1,1.1,0,0,1,1.06-1.08h4a1.09,1.09,0,0,1,1.08,1.08V11h.81V25.4h-2.5V32A16,16,0,1,0,16.79,0" transform="translate(0 0.02)" fill="#424c59" fill-rule="evenodd"/><path d="M19.09,7.86a.18.18,0,0,1-.17.19H14.67a.18.18,0,0,1-.18-.18h0V6.28a.18.18,0,0,1,.18-.18h4.24a.18.18,0,0,1,.18.18h0Zm.51-1.63a.83.83,0,0,0-.81-.83h-4a.83.83,0,0,0-.83.83V11h5.62Z" transform="translate(0 0.02)" fill="#424c59" fill-rule="evenodd"/></svg>