<svg id="b423be1b-4723-4578-930f-ec236d840d13" data-name="ae465cc4-c3a7-48be-805e-90ec5548e936" xmlns="http://www.w3.org/2000/svg" viewBox="0 0 33.49 32.02"><title>usbc-icon</title><path d="M16.05,16.68c.26.18.53.36.53.52v.71a.88.88,0,1,0,.13,0V16.1h0c0-.16.27-.35.53-.52s.67-.45.67-.73v-.33h.39V13.6h-.91v.92h.4v.33c0,.21-.33.43-.61.62a4,4,0,0,0-.47.37V13h.56l-.62-1.08L16,13h.56v4a2.35,2.35,0,0,0-.47-.36c-.29-.2-.61-.41-.61-.62v-.36a.43.43,0,0,0,.39-.44.45.45,0,0,0-.44-.46.45.45,0,0,0-.07.9V16c0,.27.33.5.66.72" fill="#424c59" fill-rule="evenodd"/><path d="M16.79,0a16,16,0,0,0-1.55,32V23.93h-2.3V9.57h.85V3.78h6.12V9.57h.8V23.93H18.16V32A16,16,0,1,0,16.79,0" fill="#424c59" fill-rule="evenodd"/><path d="M13.91,4h5.76V9.56H13.91Z" fill="#424c59" fill-rule="evenodd"/></svg>